<svg width="100px" height="100px" xmlns="http://www.w3.org/2000/svg" viewBox="0 0 100 100">
    <!-- Drone Body -->
    <rect x="25" y="40" width="50" height="10" fill="#B0BEC5" />
    <rect x="30" y="30" width="40" height="20" fill="#B0BEC5" />
    <rect x="25" y="50" width="50" height="10" fill="#B0BEC5" />

    <!-- Drone Arms -->
    <rect x="20" y="45" width="10" height="10" fill="#B0BEC5" />
    <rect x="70" y="45" width="10" height="10" fill="#B0BEC5" />

    <!-- Drone Engines -->
    <circle cx="30" cy="35" r="3" fill="#212121" />
    <circle cx="70" cy="35" r="3" fill="#212121" />

    <!-- Drone Propellers -->
    <g transform="rotate(45, 30, 35)">
        <rect x="27" y="30" width="6" height="10" fill="#BDBDBD" />
    </g>
    <g transform="rotate(45, 70, 35)">
        <rect x="67" y="30" width="6" height="10" fill="#BDBDBD" />
    </g>
    <g transform="rotate(135, 30, 35)">
        <rect x="27" y="30" width="6" height="10" fill="#BDBDBD" />
    </g>
    <g transform="rotate(135, 70, 35)">
        <rect x="67" y="30" width="6" height="10" fill="#BDBDBD" />
    </g>

    <!-- Medical Box -->
    <rect x="40" y="20" width="20" height="20" fill="#FF5722" />

    <!-- Medical Symbol on the Box -->
    <circle cx="50" cy="30" r="2" fill="#fff" />
    <line x1="48" y1="32" x2="52" y2="32" stroke="#fff" stroke-width="1.5" />
    <line x1="50" y1="28" x2="50" y2="32" stroke="#fff" stroke-width="1.5" />
</svg>
